#!OML:ASF F:\VICON\USERDATA\INSTALL\rory3\rory3.ASF
:FULLY-SPECIFIED
:DEGREES
381
root 0.975604 18.0479 42.5842 -7.07582 9.66656 0.677501
lowerback 17.2692 5.02081 -3.12492
upperback 3.73603 6.06359 -0.0675166
thorax -5.9367 3.01679 0.339751
lowerneck -0.108767 9.19619 2.36589
upperneck 37.8543 12.0092 5.62157
head 12.3658 6.52112 2.9542
rclavicle -6.33875e-014 1.23246e-014
rhumerus -42.4949 -13.1935 -71.4463
rradius 35.5016
rwrist -4.19805
rhand -10.0578 7.38837
rfingers 7.12502
rthumb 15.928 -21.9767
lclavicle -6.33875e-014 1.23246e-014
lhumerus -60.9318 38.8117 23.5103
lradius 78.2851
lwrist 35.7493
lhand -14.424 62.8278
lfingers 7.12502
lthumb 11.7202 267.52
rfemur -25.2349 -9.313 17.3457
rtibia 57.6936
rfoot -11.9386 -16.9579
rtoes 13.2081
lfemur -1.42791 -12.0499 -28.2491
ltibia 30.6101
lfoot -16.2822 -5.03906
ltoes -9.34496
382
root 0.961481 18.0551 42.7696 -7.03207 10.0869 0.8322
lowerback 17.3437 4.92864 -3.37282
upperback 3.66443 5.89335 -0.080341
thorax -6.07011 2.93819 0.492486
lowerneck 0.0787613 9.15532 2.51655
upperneck 37.7643 11.9894 5.45349
head 12.3177 6.5155 2.84872
rclavicle 6.1822e-014 1.98785e-015
rhumerus -42.5983 -13.0913 -71.3355
rradius 35.7124
rwrist -4.14458
rhand -10.1036 7.29162
rfingers 7.12502
rthumb 15.8839 -22.0769
lclavicle 6.1822e-014 1.98785e-015
lhumerus -60.2743 38.6914 24.3976
lradius 78.9764
lwrist 33.7948
lhand -14.1197 62.2482
lfingers 7.12502
lthumb 12.0137 268.117
rfemur -25.3672 -8.68069 16.7793
rtibia 55.114
rfoot -12.1735 -17.0517
rtoes 15.3459
lfemur -0.680557 -11.7757 -28.4452
ltibia 30.2267
lfoot -16.5951 -5.08643
ltoes -8.69718
383
root 0.944554 18.0584 42.9436 -6.73009 10.5097 0.900094
lowerback 17.4421 4.85937 -3.50639
upperback 3.37598 5.76654 -0.113916
thorax -6.43704 2.88136 0.537152
lowerneck 0.37065 9.08039 2.87357
upperneck 37.7558 11.9043 5.30044
head 12.3025 6.51175 2.71048
rclavicle 2.74571e-014 -2.08724e-014
rhumerus -42.8753 -13.3047 -71.0789
rradius 35.8612
rwrist -4.00752
rhand -10.0172 7.22565
rfingers 7.12502
rthumb 15.9671 -22.1363
lclavicle 2.74571e-014 -2.08724e-014
lhumerus -59.5554 37.5122 25.9017
lradius 80.2666
lwrist 32.351
lhand -14.9331 62.4662
lfingers 7.12502
lthumb 11.2293 267.854
rfemur -25.7559 -8.10976 16.4005
rtibia 52.5141
rfoot -12.3638 -17.0007
rtoes 17.0448
lfemur -0.0914288 -11.5948 -28.4285
ltibia 29.7045
lfoot -16.7189 -5.24288
ltoes -6.49909
384
root 0.936933 18.0538 43.1087 -6.37473 11.0592 1.12741
lowerback 17.7676 4.75512 -3.55364
upperback 2.97835 5.58844 -0.251544
thorax -7.024 2.79819 0.413344
lowerneck 0.394767 9.0377 3.45603
upperneck 38.1651 11.9666 4.83831
head 12.5674 6.56474 2.48509
rclavicle 1.71452e-015 2.5842e-015
rhumerus -43.4512 -13.4364 -70.8116
rradius 36.2971
rwrist -4.05414
rhand -9.72697 7.03777
rfingers 7.12502
rthumb 16.2466 -22.3015
lclavicle 1.71452e-015 2.5842e-015
lhumerus -59.0631 36.1604 27.4392
lradius 81.5634
lwrist 30.9232
lhand -15.8179 62.5957
lfingers 7.12502
lthumb 10.3758 267.68
rfemur -26.0253 -7.79826 15.7828
rtibia 49.7909
rfoot -12.1512 -16.4872
rtoes 15.7154
lfemur 0.498874 -11.3016 -28.6122
ltibia 29.1747
lfoot -16.8419 -5.34196
ltoes -6.77043
385
root 0.90749 18.0408 43.2832 -6.21526 11.2211 1.26265
lowerback 17.7888 4.82624 -3.92058
upperback 2.94465 5.61536 -0.192478
thorax -7.11381 2.82085 0.669498
lowerneck 0.16031 8.89739 2.74372
upperneck 38.0054 11.7117 5.18638
head 12.4536 6.39827 2.70336
rclavicle -6.75868e-015 1.21259e-014
rhumerus -43.3921 -13.666 -70.5645
rradius 36.5651
rwrist -4.01259
rhand -9.74594 7.23312
rfingers 7.12502
rthumb 16.2283 -22.1077
lclavicle -6.75868e-015 1.21259e-014
lhumerus -58.3296 35.0201 29.3544
lradius 82.6597
lwrist 29.2098
lhand -16.7601 62.3156
lfingers 7.12502
lthumb 9.46684 267.917
rfemur -26.0799 -6.62163 15.3475
rtibia 46.8234
rfoot -11.8668 -16.2521
rtoes 14.3413
lfemur 1.32511 -10.8925 -28.6406
ltibia 28.5503
lfoot -17.1013 -4.93733
ltoes -7.84063
386
root 0.867281 18.0856 43.4961 -6.87071 11.1236 -0.0845868
lowerback 17.3078 4.81121 -3.18259
upperback 3.53224 5.80805 0.40965
thorax -6.22357 2.89912 0.920311
lowerneck -0.565265 8.79383 1.96257
upperneck 37.623 11.5567 5.32731
head 12.3533 6.23551 2.88299
rclavicle 1.94436e-014 -1.04362e-014
rhumerus -42.4883 -13.8975 -70.5134
rradius 36.5497
rwrist -4.02391
rhand -10.0474 7.37721
rfingers 7.12502
rthumb 15.938 -21.987
lclavicle 1.94436e-014 -1.04362e-014
lhumerus -56.9323 34.4476 31.6783
lradius 83.2403
lwrist 27.3613
lhand -18.5981 62.2842
lfingers 7.12502
lthumb 7.6931 267.876
rfemur -24.9046 -5.27297 16.6835
rtibia 43.7844
rfoot -11.7756 -16.6361
rtoes 15.529
lfemur 2.85739 -10.327 -27.0537
ltibia 27.8347
lfoot -17.5647 -4.72612
ltoes -7.63911
387
root 0.86976 18.0907 43.6545 -6.2629 12.019 0.482765
lowerback 17.3755 4.58154 -3.48637
upperback 3.24112 5.4318 0.224863
thorax -6.56413 2.72385 0.962575
lowerneck -0.274265 8.77873 2.44958
upperneck 37.363 11.6979 4.64802
head 12.2782 6.2891 2.53592
rclavicle 2.43263e-014 -2.01766e-014
rhumerus -42.5047 -13.7355 -70.3946
rradius 36.6499
rwrist -4.24875
rhand -10.192 7.26602
rfingers 7.12502
rthumb 15.7987 -22.1093
lclavicle 2.43263e-014 -2.01766e-014
lhumerus -55.8676 34.6776 33.3267
lradius 82.7403
lwrist 24.7592
lhand -21.0336 61.7686
lfingers 7.12502
lthumb 5.34194 268.319
rfemur -25.3892 -4.91298 15.4135
rtibia 40.6407
rfoot -9.37264 -17.6199
rtoes 15.1073
lfemur 3.58839 -10.6149 -27.6777
ltibia 26.6882
lfoot -17.4758 -4.69989
ltoes -7.05048
388
root 0.866535 18.1057 43.8063 -5.83682 12.6124 0.571366
lowerback 17.2475 4.38228 -3.40057
upperback 3.2086 5.19009 0.213437
thorax -6.50944 2.60522 0.967666
lowerneck -0.672275 8.75064 2.25277
upperneck 37.4696 11.6691 4.66512
head 12.3853 6.2474 2.60324
rclavicle 7.74142e-014 -7.8023e-015
rhumerus -42.1524 -13.837 -70.2682
rradius 36.7667
rwrist -4.20201
rhand -10.3072 7.29245
rfingers 7.12502
rthumb 15.6878 -22.0916
lclavicle 7.74142e-014 -7.8023e-015
lhumerus -54.9574 32.7273 35.9542
lradius 83.7197
lwrist 23.7514
lhand -23.9426 62.1262
lfingers 7.12502
lthumb 2.53283 267.909
rfemur -25.368 -4.46679 14.8392
rtibia 37.7598
rfoot -8.26866 -17.8487
rtoes 17.7938
lfemur 4.36008 -10.6985 -27.7422
ltibia 25.3475
lfoot -17.165 -4.55655
ltoes -8.76072
389
root 0.863778 18.0956 44.0474 -5.88606 13.3454 1.75784
lowerback 17.1762 4.35155 -4.49677
upperback 3.17537 4.93025 -0.141846
thorax -6.5514 2.49886 1.26603
lowerneck -0.730829 8.56346 1.73166
upperneck 37.9653 11.2345 5.4566
head 12.5125 6.07923 2.97265
rclavicle 1.73812e-014 -7.95139e-016
rhumerus -42.6501 -14.1265 -70.1401
rradius 36.9321
rwrist -3.9796
rhand -10.2986 7.35813
rfingers 7.12502
rthumb 15.6961 -22.0253
lclavicle 1.73812e-014 -7.95139e-016
lhumerus -54.6331 30.7854 37.5348
lradius 83.8979
lwrist 21.4042
lhand -25.3555 61.4832
lfingers 7.12502
lthumb 1.16825 268.54
rfemur -24.5419 -4.02499 12.8874
rtibia 34.7819
rfoot -6.80988 -18.0725
rtoes 15.9604
lfemur 6.4524 -10.8561 -29.1833
ltibia 23.9155
lfoot -17.2197 -4.47764
ltoes -7.61664
390
root 0.835228 18.1088 44.2309 -5.75871 13.5086 1.78142
lowerback 16.7825 4.30218 -4.90768
upperback 3.3686 4.82954 -0.0149165
thorax -6.16864 2.45303 1.68832
lowerneck -0.521613 8.64873 2.48489
upperneck 37.937 11.4663 4.83603
head 12.5684 6.20716 2.6318
rclavicle 4.79195e-014 1.49089e-015
rhumerus -41.9954 -14.2158 -70.1755
rradius 36.8682
rwrist -4.03093
rhand -10.3644 7.52375
rfingers 7.12502
rthumb 15.6327 -21.8646
lclavicle 4.79195e-014 1.49089e-015
lhumerus -53.8665 30.4187 39.232
lradius 83.2043
lwrist 18.5936
lhand -26.2015 61.7802
lfingers 7.12502
lthumb 0.351149 268.24
rfemur -24.4028 -2.15586 12.3711
rtibia 32.2105
rfoot -6.66145 -18.7878
rtoes 13.1839
lfemur 7.72742 -10.9632 -29.0648
ltibia 22.5051
lfoot -16.993 -4.40629
ltoes -7.42139
391
root 0.796168 18.1076 44.4165 -6.0818 13.4444 0.860437
lowerback 17.5163 4.39899 -4.15889
upperback 2.95236 5.05575 0.195029
thorax -6.98682 2.56142 1.37251
lowerneck -0.243515 8.52726 3.33647
upperneck 38.2918 11.4476 4.19986
head 12.795 6.24407 2.26758
rclavicle 9.05961e-014 -2.26615e-014
rhumerus -42.6656 -14.4793 -69.963
rradius 37.0856
rwrist -4.13896
rhand -10.3706 7.56334
rfingers 7.12502
rthumb 15.6267 -21.8255
lclavicle 9.05961e-014 -2.26615e-014
lhumerus -52.8505 28.5436 41.0771
lradius 82.3571
lwrist 16.874
lhand -26.7278 61.3448
lfingers 7.12502
lthumb -0.157171 268.676
rfemur -23.9891 0.963192 12.6342
rtibia 29.7008
rfoot -7.68423 -20.0621
rtoes 15.1999
lfemur 9.33335 -11.0232 -27.8809
ltibia 20.9157
lfoot -16.6527 -4.60822
ltoes -6.5545
392
root 0.781484 18.1051 44.5661 -5.44053 13.9998 1.28509
lowerback 16.9551 4.20789 -4.64844
upperback 3.12413 4.74858 0.180546
thorax -6.51596 2.41769 1.74859
lowerneck -0.760888 8.40012 1.46685
upperneck 37.1842 11.0841 5.14286
head 12.1855 5.94495 2.83329
rclavicle -4.53602e-014 1.65488e-014
rhumerus -41.6997 -14.5155 -70.0201
rradius 37.0677
rwrist -4.1304
rhand -10.4423 7.41261
rfingers 7.12502
rthumb 15.5576 -21.9816
lclavicle -4.53602e-014 1.65488e-014
lhumerus -51.6934 29.52 42.7785
lradius 80.8285
lwrist 14.2404
lhand -26.2845 58.2489
lfingers 7.12502
lthumb 0.270998 448.228
rfemur -24.1913 2.44124 11.4179
rtibia 27.4331
rfoot -7.36715 -20.6873
rtoes 16.2596
lfemur 9.91416 -11.1881 -28.0312
ltibia 19.7513
lfoot -16.3737 -5.01648
ltoes -8.27928
393
root 0.744692 18.1293 44.7904 -5.61824 14.2726 0.700406
lowerback 16.8977 4.23181 -4.37058
upperback 2.93665 4.84117 0.345806
thorax -6.68579 2.46326 1.74297
lowerneck -0.470892 8.2434 2.4048
upperneck 38.1764 10.8501 5.02947
head 12.6505 5.95258 2.67083
rclavicle -8.38374e-014 -4.07509e-015
rhumerus -42.1647 -14.9989 -69.8323
rradius 37.3685
rwrist -4.0438
rhand -10.281 6.63555
rfingers 7.12502
rthumb 15.713 -22.7465
lclavicle -8.38374e-014 -4.07509e-015
lhumerus -51.1096 26.877 44.9558
lradius 80.484
lwrist 13.493
lhand -28.758 59.0232
lfingers 7.12502
lthumb -2.11802 448.992
rfemur -22.8838 4.76957 11.4121
rtibia 24.1795
rfoot -8.80298 -23.428
rtoes 16.684
lfemur 10.756 -11.1674 -27.0992
ltibia 19.6903
lfoot -17.0578 -5.32248
ltoes -12.1834
394
root 0.729794 18.1433 44.9874 -5.51101 14.9877 1.07523
lowerback 16.5598 4.06787 -4.7389
upperback 3.17844 4.58226 0.298731
thorax -6.24844 2.33724 1.99021
lowerneck -0.991141 8.14883 2.06753
upperneck 37.5326 10.9314 4.34843
head 12.4955 5.86023 2.46984
rclavicle 5.49702e-014 -8.29926e-015
rhumerus -41.6422 -15.341 -69.8373
rradius 37.3708
rwrist -4.16836
rhand -10.6225 6.84392
rfingers 7.12502
rthumb 15.3841 -22.5637
lclavicle 5.49702e-014 -8.29926e-015
lhumerus -49.5948 26.8998 46.9334
lradius 78.5743
lwrist 11.6077
lhand -30.4223 57.5025
lfingers 7.12502
lthumb -3.72531 447.45
rfemur -22.4883 5.73199 10.4069
rtibia 22.0188
rfoot -7.33047 -24.3977
rtoes 13.2408
lfemur 11.4111 -11.3054 -27.3022
ltibia 19.1232
lfoot -16.4961 -6.29364
ltoes -9.24414
395
root 0.704193 17.9537 45.17 -5.22901 15.7243 1.68702
lowerback 15.9955 3.84476 -5.368
upperback 3.65036 4.22903 0.273533
thorax -5.45204 2.15679 2.44551
lowerneck -1.47718 8.16668 1.79258
upperneck 37.2748 10.9867 4.24754
head 12.4656 5.82864 2.49498
rclavicle -3.85735e-014 -4.94477e-015
rhumerus -40.3901 -15.5876 -69.9291
rradius 37.066
rwrist -4.26156
rhand -10.9743 7.24675
rfingers 7.12502
rthumb 15.0452 -22.1866
lclavicle -3.85735e-014 -4.94477e-015
lhumerus -47.9225 27.3484 49.0372
lradius 76.3773
lwrist 9.33538
lhand -31.3871 54.9803
lfingers 7.12502
lthumb -4.65695 444.909
rfemur -22.6332 9.3049 7.83331
rtibia 18.5184
rfoot -15.1002 -24.3317
rtoes 37.3919
lfemur 12.2204 -11.7285 -27.7572
ltibia 19.3337
lfoot -16.1941 -6.83782
ltoes -9.55407
